# xmcd CD database file
#
# Track frame offsets:
#	750
#	23575
#	45302
#	68048
#	95947
#	122530
#	144630
#	169584
#	190087
#	213134
#	226676
#
# Disc length: 3387 seconds
#
# Revision: 0
# Processed by: cddbd v1.4PL0 Copyright (c) Steve Scherf et al.
# Submitted via: CDex 1.50beta10
#
DISCID=860d310b
DTITLE=Raulin Rodriguez - Derroche De Amor
DYEAR=2002
DGENRE=Salsa
TTITLE0=Derroche de Sexo
TTITLE1=Cuando Te Acuerdes de Mi
TTITLE2=Me Pregunto Porque
TTITLE3=Mi Gran Amor
TTITLE4=Si Yo Pudiera
TTITLE5=Popurri
TTITLE6=Me Olvide de Vivir
TTITLE7=Ya No
TTITLE8=No Quiero Hacerte Dano
TTITLE9=Respeta Mi Dolor
TTITLE10=Bomba
EXTD=YEAR: 2002
EXTT0=
EXTT1=
EXTT2=
EXTT3=
EXTT4=
EXTT5=
EXTT6=
EXTT7=
EXTT8=
EXTT9=
EXTT10=
PLAYORDER=
